<svg class="rich-terminal" viewBox="0 0 1946 928.4" xmlns="http://www.w3.org/2000/svg">
    <!-- Generated with Rich https://www.textualize.io -->
    <style>

    @font-face {
        font-family: "Fira Code";
        src: local("FiraCode-Regular"),
                url("https://cdnjs.cloudflare.com/ajax/libs/firacode/6.2.0/woff2/FiraCode-Regular.woff2") format("woff2"),
                url("https://cdnjs.cloudflare.com/ajax/libs/firacode/6.2.0/woff/FiraCode-Regular.woff") format("woff");
        font-style: normal;
        font-weight: 400;
    }
    @font-face {
        font-family: "Fira Code";
        src: local("FiraCode-Bold"),
                url("https://cdnjs.cloudflare.com/ajax/libs/firacode/6.2.0/woff2/FiraCode-Bold.woff2") format("woff2"),
                url("https://cdnjs.cloudflare.com/ajax/libs/firacode/6.2.0/woff/FiraCode-Bold.woff") format("woff");
        font-style: bold;
        font-weight: 700;
    }

    .terminal-1607078652-matrix {
        font-family: Fira Code, monospace;
        font-size: 20px;
        line-height: 24.4px;
        font-variant-east-asian: full-width;
    }

    .terminal-1607078652-title {
        font-size: 18px;
        font-weight: bold;
        font-family: arial;
    }

    .terminal-1607078652-r1 { fill: #c5c8c6 }
.terminal-1607078652-r2 { fill: #cdd6f4 }
.terminal-1607078652-r3 { fill: #313244 }
.terminal-1607078652-r4 { fill: #585b70 }
.terminal-1607078652-r5 { fill: #7f7f8b }
.terminal-1607078652-r6 { fill: #7f849c }
.terminal-1607078652-r7 { fill: #cdd6f4;font-weight: bold }
.terminal-1607078652-r8 { fill: #1e1e2e }
.terminal-1607078652-r9 { fill: #9d65ff }
.terminal-1607078652-r10 { fill: #ffffff }
.terminal-1607078652-r11 { fill: #414255 }
.terminal-1607078652-r12 { fill: #ffb8d6 }
.terminal-1607078652-r13 { fill: #181825;font-weight: bold }
.terminal-1607078652-r14 { fill: #b585a8 }
.terminal-1607078652-r15 { fill: #202233 }
.terminal-1607078652-r16 { fill: #b05372 }
.terminal-1607078652-r17 { fill: #fab387;font-weight: bold }
.terminal-1607078652-r18 { fill: #606378 }
    </style>

    <defs>
    <clipPath id="terminal-1607078652-clip-terminal">
      <rect x="0" y="0" width="1926.6" height="877.4" />
    </clipPath>
    <clipPath id="terminal-1607078652-line-0">
    <rect x="0" y="1.5" width="1927.6" height="24.65"/>
            </clipPath>
<clipPath id="terminal-1607078652-line-1">
    <rect x="0" y="25.9" width="1927.6" height="24.65"/>
            </clipPath>
<clipPath id="terminal-1607078652-line-2">
    <rect x="0" y="50.3" width="1927.6" height="24.65"/>
            </clipPath>
<clipPath id="terminal-1607078652-line-3">
    <rect x="0" y="74.7" width="1927.6" height="24.65"/>
            </clipPath>
<clipPath id="terminal-1607078652-line-4">
    <rect x="0" y="99.1" width="1927.6" height="24.65"/>
            </clipPath>
<clipPath id="terminal-1607078652-line-5">
    <rect x="0" y="123.5" width="1927.6" height="24.65"/>
            </clipPath>
<clipPath id="terminal-1607078652-line-6">
    <rect x="0" y="147.9" width="1927.6" height="24.65"/>
            </clipPath>
<clipPath id="terminal-1607078652-line-7">
    <rect x="0" y="172.3" width="1927.6" height="24.65"/>
            </clipPath>
<clipPath id="terminal-1607078652-line-8">
    <rect x="0" y="196.7" width="1927.6" height="24.65"/>
            </clipPath>
<clipPath id="terminal-1607078652-line-9">
    <rect x="0" y="221.1" width="1927.6" height="24.65"/>
            </clipPath>
<clipPath id="terminal-1607078652-line-10">
    <rect x="0" y="245.5" width="1927.6" height="24.65"/>
            </clipPath>
<clipPath id="terminal-1607078652-line-11">
    <rect x="0" y="269.9" width="1927.6" height="24.65"/>
            </clipPath>
<clipPath id="terminal-1607078652-line-12">
    <rect x="0" y="294.3" width="1927.6" height="24.65"/>
            </clipPath>
<clipPath id="terminal-1607078652-line-13">
    <rect x="0" y="318.7" width="1927.6" height="24.65"/>
            </clipPath>
<clipPath id="terminal-1607078652-line-14">
    <rect x="0" y="343.1" width="1927.6" height="24.65"/>
            </clipPath>
<clipPath id="terminal-1607078652-line-15">
    <rect x="0" y="367.5" width="1927.6" height="24.65"/>
            </clipPath>
<clipPath id="terminal-1607078652-line-16">
    <rect x="0" y="391.9" width="1927.6" height="24.65"/>
            </clipPath>
<clipPath id="terminal-1607078652-line-17">
    <rect x="0" y="416.3" width="1927.6" height="24.65"/>
            </clipPath>
<clipPath id="terminal-1607078652-line-18">
    <rect x="0" y="440.7" width="1927.6" height="24.65"/>
            </clipPath>
<clipPath id="terminal-1607078652-line-19">
    <rect x="0" y="465.1" width="1927.6" height="24.65"/>
            </clipPath>
<clipPath id="terminal-1607078652-line-20">
    <rect x="0" y="489.5" width="1927.6" height="24.65"/>
            </clipPath>
<clipPath id="terminal-1607078652-line-21">
    <rect x="0" y="513.9" width="1927.6" height="24.65"/>
            </clipPath>
<clipPath id="terminal-1607078652-line-22">
    <rect x="0" y="538.3" width="1927.6" height="24.65"/>
            </clipPath>
<clipPath id="terminal-1607078652-line-23">
    <rect x="0" y="562.7" width="1927.6" height="24.65"/>
            </clipPath>
<clipPath id="terminal-1607078652-line-24">
    <rect x="0" y="587.1" width="1927.6" height="24.65"/>
            </clipPath>
<clipPath id="terminal-1607078652-line-25">
    <rect x="0" y="611.5" width="1927.6" height="24.65"/>
            </clipPath>
<clipPath id="terminal-1607078652-line-26">
    <rect x="0" y="635.9" width="1927.6" height="24.65"/>
            </clipPath>
<clipPath id="terminal-1607078652-line-27">
    <rect x="0" y="660.3" width="1927.6" height="24.65"/>
            </clipPath>
<clipPath id="terminal-1607078652-line-28">
    <rect x="0" y="684.7" width="1927.6" height="24.65"/>
            </clipPath>
<clipPath id="terminal-1607078652-line-29">
    <rect x="0" y="709.1" width="1927.6" height="24.65"/>
            </clipPath>
<clipPath id="terminal-1607078652-line-30">
    <rect x="0" y="733.5" width="1927.6" height="24.65"/>
            </clipPath>
<clipPath id="terminal-1607078652-line-31">
    <rect x="0" y="757.9" width="1927.6" height="24.65"/>
            </clipPath>
<clipPath id="terminal-1607078652-line-32">
    <rect x="0" y="782.3" width="1927.6" height="24.65"/>
            </clipPath>
<clipPath id="terminal-1607078652-line-33">
    <rect x="0" y="806.7" width="1927.6" height="24.65"/>
            </clipPath>
<clipPath id="terminal-1607078652-line-34">
    <rect x="0" y="831.1" width="1927.6" height="24.65"/>
            </clipPath>
    </defs>

    <rect fill="#292929" stroke="rgba(255,255,255,0.35)" stroke-width="1" x="1" y="1" width="1944" height="926.4" rx="8"/><text class="terminal-1607078652-title" fill="#c5c8c6" text-anchor="middle" x="972" y="27">DoListTUI</text>
            <g transform="translate(26,22)">
            <circle cx="0" cy="0" r="7" fill="#ff5f57"/>
            <circle cx="22" cy="0" r="7" fill="#febc2e"/>
            <circle cx="44" cy="0" r="7" fill="#28c840"/>
            </g>
        
    <g transform="translate(9, 41)" clip-path="url(#terminal-1607078652-clip-terminal)">
    <rect fill="#45475a" x="0" y="1.5" width="12.2" height="24.65" shape-rendering="crispEdges"/><rect fill="#45475a" x="12.2" y="1.5" width="12.2" height="24.65" shape-rendering="crispEdges"/><rect fill="#45475a" x="24.4" y="1.5" width="61" height="24.65" shape-rendering="crispEdges"/><rect fill="#45475a" x="85.4" y="1.5" width="12.2" height="24.65" shape-rendering="crispEdges"/><rect fill="#45475a" x="97.6" y="1.5" width="793" height="24.65" shape-rendering="crispEdges"/><rect fill="#45475a" x="890.6" y="1.5" width="109.8" height="24.65" shape-rendering="crispEdges"/><rect fill="#45475a" x="1000.4" y="1.5" width="805.2" height="24.65" shape-rendering="crispEdges"/><rect fill="#45475a" x="1805.6" y="1.5" width="12.2" height="24.65" shape-rendering="crispEdges"/><rect fill="#45475a" x="1817.8" y="1.5" width="0" height="24.65" shape-rendering="crispEdges"/><rect fill="#45475a" x="1817.8" y="1.5" width="97.6" height="24.65" shape-rendering="crispEdges"/><rect fill="#45475a" x="1915.4" y="1.5" width="12.2" height="24.65" shape-rendering="crispEdges"/><rect fill="#313244" x="0" y="25.9" width="1927.6" height="24.65" shape-rendering="crispEdges"/><rect fill="#313244" x="0" y="50.3" width="12.2" height="24.65" shape-rendering="crispEdges"/><rect fill="#313244" x="12.2" y="50.3" width="97.6" height="24.65" shape-rendering="crispEdges"/><rect fill="#313244" x="109.8" y="50.3" width="1805.6" height="24.65" shape-rendering="crispEdges"/><rect fill="#313244" x="1915.4" y="50.3" width="12.2" height="24.65" shape-rendering="crispEdges"/><rect fill="#313244" x="0" y="74.7" width="12.2" height="24.65" shape-rendering="crispEdges"/><rect fill="#585b70" x="12.2" y="74.7" width="12.2" height="24.65" shape-rendering="crispEdges"/><rect fill="#313244" x="24.4" y="74.7" width="1354.2" height="24.65" shape-rendering="crispEdges"/><rect fill="#313244" x="1378.6" y="74.7" width="12.2" height="24.65" shape-rendering="crispEdges"/><rect fill="#313244" x="1390.8" y="74.7" width="12.2" height="24.65" shape-rendering="crispEdges"/><rect fill="#585b70" x="1403" y="74.7" width="12.2" height="24.65" shape-rendering="crispEdges"/><rect fill="#313244" x="1415.2" y="74.7" width="219.6" height="24.65" shape-rendering="crispEdges"/><rect fill="#313244" x="1634.8" y="74.7" width="12.2" height="24.65" shape-rendering="crispEdges"/><rect fill="#313244" x="1647" y="74.7" width="12.2" height="24.65" shape-rendering="crispEdges"/><rect fill="#585b70" x="1659.2" y="74.7" width="12.2" height="24.65" shape-rendering="crispEdges"/><rect fill="#313244" x="1671.4" y="74.7" width="219.6" height="24.65" shape-rendering="crispEdges"/><rect fill="#313244" x="1891" y="74.7" width="12.2" height="24.65" shape-rendering="crispEdges"/><rect fill="#313244" x="1903.2" y="74.7" width="12.2" height="24.65" shape-rendering="crispEdges"/><rect fill="#313244" x="1915.4" y="74.7" width="12.2" height="24.65" shape-rendering="crispEdges"/><rect fill="#313244" x="0" y="99.1" width="12.2" height="24.65" shape-rendering="crispEdges"/><rect fill="#585b70" x="12.2" y="99.1" width="12.2" height="24.65" shape-rendering="crispEdges"/><rect fill="#313244" x="24.4" y="99.1" width="24.4" height="24.65" shape-rendering="crispEdges"/><rect fill="#313244" x="48.8" y="99.1" width="109.8" height="24.65" shape-rendering="crispEdges"/><rect fill="#313244" x="158.6" y="99.1" width="1195.6" height="24.65" shape-rendering="crispEdges"/><rect fill="#313244" x="1354.2" y="99.1" width="24.4" height="24.65" shape-rendering="crispEdges"/><rect fill="#313244" x="1378.6" y="99.1" width="12.2" height="24.65" shape-rendering="crispEdges"/><rect fill="#313244" x="1390.8" y="99.1" width="12.2" height="24.65" shape-rendering="crispEdges"/><rect fill="#585b70" x="1403" y="99.1" width="12.2" height="24.65" shape-rendering="crispEdges"/><rect fill="#313244" x="1415.2" y="99.1" width="24.4" height="24.65" shape-rendering="crispEdges"/><rect fill="#313244" x="1439.6" y="99.1" width="97.6" height="24.65" shape-rendering="crispEdges"/><rect fill="#313244" x="1537.2" y="99.1" width="48.8" height="24.65" shape-rendering="crispEdges"/><rect fill="#313244" x="1586" y="99.1" width="12.2" height="24.65" shape-rendering="crispEdges"/><rect fill="#313244" x="1598.2" y="99.1" width="12.2" height="24.65" shape-rendering="crispEdges"/><rect fill="#313244" x="1610.4" y="99.1" width="24.4" height="24.65" shape-rendering="crispEdges"/><rect fill="#313244" x="1634.8" y="99.1" width="12.2" height="24.65" shape-rendering="crispEdges"/><rect fill="#313244" x="1647" y="99.1" width="12.2" height="24.65" shape-rendering="crispEdges"/><rect fill="#585b70" x="1659.2" y="99.1" width="12.2" height="24.65" shape-rendering="crispEdges"/><rect fill="#313244" x="1671.4" y="99.1" width="24.4" height="24.65" shape-rendering="crispEdges"/><rect fill="#313244" x="1695.8" y="99.1" width="134.2" height="24.65" shape-rendering="crispEdges"/><rect fill="#313244" x="1830" y="99.1" width="12.2" height="24.65" shape-rendering="crispEdges"/><rect fill="#313244" x="1842.2" y="99.1" width="12.2" height="24.65" shape-rendering="crispEdges"/><rect fill="#313244" x="1854.4" y="99.1" width="12.2" height="24.65" shape-rendering="crispEdges"/><rect fill="#313244" x="1866.6" y="99.1" width="24.4" height="24.65" shape-rendering="crispEdges"/><rect fill="#313244" x="1891" y="99.1" width="12.2" height="24.65" shape-rendering="crispEdges"/><rect fill="#313244" x="1903.2" y="99.1" width="12.2" height="24.65" shape-rendering="crispEdges"/><rect fill="#313244" x="1915.4" y="99.1" width="12.2" height="24.65" shape-rendering="crispEdges"/><rect fill="#313244" x="0" y="123.5" width="12.2" height="24.65" shape-rendering="crispEdges"/><rect fill="#585b70" x="12.2" y="123.5" width="12.2" height="24.65" shape-rendering="crispEdges"/><rect fill="#313244" x="24.4" y="123.5" width="1354.2" height="24.65" shape-rendering="crispEdges"/><rect fill="#313244" x="1378.6" y="123.5" width="12.2" height="24.65" shape-rendering="crispEdges"/><rect fill="#313244" x="1390.8" y="123.5" width="12.2" height="24.65" shape-rendering="crispEdges"/><rect fill="#585b70" x="1403" y="123.5" width="12.2" height="24.65" shape-rendering="crispEdges"/><rect fill="#313244" x="1415.2" y="123.5" width="219.6" height="24.65" shape-rendering="crispEdges"/><rect fill="#313244" x="1634.8" y="123.5" width="12.2" height="24.65" shape-rendering="crispEdges"/><rect fill="#313244" x="1647" y="123.5" width="12.2" height="24.65" shape-rendering="crispEdges"/><rect fill="#585b70" x="1659.2" y="123.5" width="12.2" height="24.65" shape-rendering="crispEdges"/><rect fill="#313244" x="1671.4" y="123.5" width="219.6" height="24.65" shape-rendering="crispEdges"/><rect fill="#313244" x="1891" y="123.5" width="12.2" height="24.65" shape-rendering="crispEdges"/><rect fill="#313244" x="1903.2" y="123.5" width="12.2" height="24.65" shape-rendering="crispEdges"/><rect fill="#313244" x="1915.4" y="123.5" width="12.2" height="24.65" shape-rendering="crispEdges"/><rect fill="#313244" x="0" y="147.9" width="12.2" height="24.65" shape-rendering="crispEdges"/><rect fill="#313244" x="12.2" y="147.9" width="1903.2" height="24.65" shape-rendering="crispEdges"/><rect fill="#313244" x="1915.4" y="147.9" width="12.2" height="24.65" shape-rendering="crispEdges"/><rect fill="#313244" x="0" y="172.3" width="12.2" height="24.65" shape-rendering="crispEdges"/><rect fill="#4b4e61" x="12.2" y="172.3" width="48.8" height="24.65" shape-rendering="crispEdges"/><rect fill="#4b4e61" x="61" y="172.3" width="268.4" height="24.65" shape-rendering="crispEdges"/><rect fill="#4b4e61" x="329.4" y="172.3" width="73.2" height="24.65" shape-rendering="crispEdges"/><rect fill="#4b4e61" x="402.6" y="172.3" width="109.8" height="24.65" shape-rendering="crispEdges"/><rect fill="#4b4e61" x="512.4" y="172.3" width="170.8" height="24.65" shape-rendering="crispEdges"/><rect fill="#4b4e61" x="683.2" y="172.3" width="85.4" height="24.65" shape-rendering="crispEdges"/><rect fill="#4b4e61" x="768.6" y="172.3" width="158.6" height="24.65" shape-rendering="crispEdges"/><rect fill="#46495b" x="927.2" y="172.3" width="988.2" height="24.65" shape-rendering="crispEdges"/><rect fill="#313244" x="1915.4" y="172.3" width="12.2" height="24.65" shape-rendering="crispEdges"/><rect fill="#313244" x="0" y="196.7" width="12.2" height="24.65" shape-rendering="crispEdges"/><rect fill="#f5c2e7" x="12.2" y="196.7" width="48.8" height="24.65" shape-rendering="crispEdges"/><rect fill="#f5c2e7" x="61" y="196.7" width="268.4" height="24.65" shape-rendering="crispEdges"/><rect fill="#f5c2e7" x="329.4" y="196.7" width="73.2" height="24.65" shape-rendering="crispEdges"/><rect fill="#f5c2e7" x="402.6" y="196.7" width="109.8" height="24.65" shape-rendering="crispEdges"/><rect fill="#f5c2e7" x="512.4" y="196.7" width="170.8" height="24.65" shape-rendering="crispEdges"/><rect fill="#f5c2e7" x="683.2" y="196.7" width="85.4" height="24.65" shape-rendering="crispEdges"/><rect fill="#f5c2e7" x="768.6" y="196.7" width="158.6" height="24.65" shape-rendering="crispEdges"/><rect fill="#383a4c" x="927.2" y="196.7" width="988.2" height="24.65" shape-rendering="crispEdges"/><rect fill="#313244" x="1915.4" y="196.7" width="12.2" height="24.65" shape-rendering="crispEdges"/><rect fill="#313244" x="0" y="221.1" width="12.2" height="24.65" shape-rendering="crispEdges"/><rect fill="#383a4c" x="12.2" y="221.1" width="48.8" height="24.65" shape-rendering="crispEdges"/><rect fill="#383a4c" x="61" y="221.1" width="268.4" height="24.65" shape-rendering="crispEdges"/><rect fill="#383a4c" x="329.4" y="221.1" width="73.2" height="24.65" shape-rendering="crispEdges"/><rect fill="#383a4c" x="402.6" y="221.1" width="12.2" height="24.65" shape-rendering="crispEdges"/><rect fill="#383a4c" x="414.8" y="221.1" width="36.6" height="24.65" shape-rendering="crispEdges"/><rect fill="#383a4c" x="451.4" y="221.1" width="61" height="24.65" shape-rendering="crispEdges"/><rect fill="#383a4c" x="512.4" y="221.1" width="170.8" height="24.65" shape-rendering="crispEdges"/><rect fill="#383a4c" x="683.2" y="221.1" width="85.4" height="24.65" shape-rendering="crispEdges"/><rect fill="#383a4c" x="768.6" y="221.1" width="158.6" height="24.65" shape-rendering="crispEdges"/><rect fill="#383a4c" x="927.2" y="221.1" width="988.2" height="24.65" shape-rendering="crispEdges"/><rect fill="#313244" x="1915.4" y="221.1" width="12.2" height="24.65" shape-rendering="crispEdges"/><rect fill="#313244" x="0" y="245.5" width="12.2" height="24.65" shape-rendering="crispEdges"/><rect fill="#383a4c" x="12.2" y="245.5" width="48.8" height="24.65" shape-rendering="crispEdges"/><rect fill="#383a4c" x="61" y="245.5" width="268.4" height="24.65" shape-rendering="crispEdges"/><rect fill="#383a4c" x="329.4" y="245.5" width="73.2" height="24.65" shape-rendering="crispEdges"/><rect fill="#383a4c" x="402.6" y="245.5" width="12.2" height="24.65" shape-rendering="crispEdges"/><rect fill="#383a4c" x="414.8" y="245.5" width="36.6" height="24.65" shape-rendering="crispEdges"/><rect fill="#383a4c" x="451.4" y="245.5" width="61" height="24.65" shape-rendering="crispEdges"/><rect fill="#383a4c" x="512.4" y="245.5" width="170.8" height="24.65" shape-rendering="crispEdges"/><rect fill="#383a4c" x="683.2" y="245.5" width="85.4" height="24.65" shape-rendering="crispEdges"/><rect fill="#383a4c" x="768.6" y="245.5" width="158.6" height="24.65" shape-rendering="crispEdges"/><rect fill="#383a4c" x="927.2" y="245.5" width="988.2" height="24.65" shape-rendering="crispEdges"/><rect fill="#313244" x="1915.4" y="245.5" width="12.2" height="24.65" shape-rendering="crispEdges"/><rect fill="#313244" x="0" y="269.9" width="12.2" height="24.65" shape-rendering="crispEdges"/><rect fill="#383a4c" x="12.2" y="269.9" width="48.8" height="24.65" shape-rendering="crispEdges"/><rect fill="#383a4c" x="61" y="269.9" width="268.4" height="24.65" shape-rendering="crispEdges"/><rect fill="#383a4c" x="329.4" y="269.9" width="73.2" height="24.65" shape-rendering="crispEdges"/><rect fill="#383a4c" x="402.6" y="269.9" width="12.2" height="24.65" shape-rendering="crispEdges"/><rect fill="#383a4c" x="414.8" y="269.9" width="36.6" height="24.65" shape-rendering="crispEdges"/><rect fill="#383a4c" x="451.4" y="269.9" width="61" height="24.65" shape-rendering="crispEdges"/><rect fill="#383a4c" x="512.4" y="269.9" width="170.8" height="24.65" shape-rendering="crispEdges"/><rect fill="#383a4c" x="683.2" y="269.9" width="85.4" height="24.65" shape-rendering="crispEdges"/><rect fill="#383a4c" x="768.6" y="269.9" width="158.6" height="24.65" shape-rendering="crispEdges"/><rect fill="#383a4c" x="927.2" y="269.9" width="988.2" height="24.65" shape-rendering="crispEdges"/><rect fill="#313244" x="1915.4" y="269.9" width="12.2" height="24.65" shape-rendering="crispEdges"/><rect fill="#313244" x="0" y="294.3" width="12.2" height="24.65" shape-rendering="crispEdges"/><rect fill="#383a4c" x="12.2" y="294.3" width="1903.2" height="24.65" shape-rendering="crispEdges"/><rect fill="#313244" x="1915.4" y="294.3" width="12.2" height="24.65" shape-rendering="crispEdges"/><rect fill="#313244" x="0" y="318.7" width="12.2" height="24.65" shape-rendering="crispEdges"/><rect fill="#383a4c" x="12.2" y="318.7" width="1903.2" height="24.65" shape-rendering="crispEdges"/><rect fill="#313244" x="1915.4" y="318.7" width="12.2" height="24.65" shape-rendering="crispEdges"/><rect fill="#313244" x="0" y="343.1" width="12.2" height="24.65" shape-rendering="crispEdges"/><rect fill="#383a4c" x="12.2" y="343.1" width="1903.2" height="24.65" shape-rendering="crispEdges"/><rect fill="#313244" x="1915.4" y="343.1" width="12.2" height="24.65" shape-rendering="crispEdges"/><rect fill="#313244" x="0" y="367.5" width="12.2" height="24.65" shape-rendering="crispEdges"/><rect fill="#383a4c" x="12.2" y="367.5" width="1903.2" height="24.65" shape-rendering="crispEdges"/><rect fill="#313244" x="1915.4" y="367.5" width="12.2" height="24.65" shape-rendering="crispEdges"/><rect fill="#313244" x="0" y="391.9" width="12.2" height="24.65" shape-rendering="crispEdges"/><rect fill="#383a4c" x="12.2" y="391.9" width="1903.2" height="24.65" shape-rendering="crispEdges"/><rect fill="#313244" x="1915.4" y="391.9" width="12.2" height="24.65" shape-rendering="crispEdges"/><rect fill="#313244" x="0" y="416.3" width="12.2" height="24.65" shape-rendering="crispEdges"/><rect fill="#383a4c" x="12.2" y="416.3" width="1903.2" height="24.65" shape-rendering="crispEdges"/><rect fill="#313244" x="1915.4" y="416.3" width="12.2" height="24.65" shape-rendering="crispEdges"/><rect fill="#313244" x="0" y="440.7" width="12.2" height="24.65" shape-rendering="crispEdges"/><rect fill="#383a4c" x="12.2" y="440.7" width="1903.2" height="24.65" shape-rendering="crispEdges"/><rect fill="#313244" x="1915.4" y="440.7" width="12.2" height="24.65" shape-rendering="crispEdges"/><rect fill="#313244" x="0" y="465.1" width="12.2" height="24.65" shape-rendering="crispEdges"/><rect fill="#383a4c" x="12.2" y="465.1" width="1903.2" height="24.65" shape-rendering="crispEdges"/><rect fill="#313244" x="1915.4" y="465.1" width="12.2" height="24.65" shape-rendering="crispEdges"/><rect fill="#313244" x="0" y="489.5" width="12.2" height="24.65" shape-rendering="crispEdges"/><rect fill="#383a4c" x="12.2" y="489.5" width="1903.2" height="24.65" shape-rendering="crispEdges"/><rect fill="#313244" x="1915.4" y="489.5" width="12.2" height="24.65" shape-rendering="crispEdges"/><rect fill="#313244" x="0" y="513.9" width="12.2" height="24.65" shape-rendering="crispEdges"/><rect fill="#383a4c" x="12.2" y="513.9" width="1903.2" height="24.65" shape-rendering="crispEdges"/><rect fill="#313244" x="1915.4" y="513.9" width="12.2" height="24.65" shape-rendering="crispEdges"/><rect fill="#313244" x="0" y="538.3" width="12.2" height="24.65" shape-rendering="crispEdges"/><rect fill="#383a4c" x="12.2" y="538.3" width="1903.2" height="24.65" shape-rendering="crispEdges"/><rect fill="#313244" x="1915.4" y="538.3" width="12.2" height="24.65" shape-rendering="crispEdges"/><rect fill="#313244" x="0" y="562.7" width="12.2" height="24.65" shape-rendering="crispEdges"/><rect fill="#383a4c" x="12.2" y="562.7" width="1903.2" height="24.65" shape-rendering="crispEdges"/><rect fill="#313244" x="1915.4" y="562.7" width="12.2" height="24.65" shape-rendering="crispEdges"/><rect fill="#313244" x="0" y="587.1" width="12.2" height="24.65" shape-rendering="crispEdges"/><rect fill="#383a4c" x="12.2" y="587.1" width="1903.2" height="24.65" shape-rendering="crispEdges"/><rect fill="#313244" x="1915.4" y="587.1" width="12.2" height="24.65" shape-rendering="crispEdges"/><rect fill="#313244" x="0" y="611.5" width="12.2" height="24.65" shape-rendering="crispEdges"/><rect fill="#383a4c" x="12.2" y="611.5" width="1903.2" height="24.65" shape-rendering="crispEdges"/><rect fill="#313244" x="1915.4" y="611.5" width="12.2" height="24.65" shape-rendering="crispEdges"/><rect fill="#313244" x="0" y="635.9" width="12.2" height="24.65" shape-rendering="crispEdges"/><rect fill="#383a4c" x="12.2" y="635.9" width="1903.2" height="24.65" shape-rendering="crispEdges"/><rect fill="#313244" x="1915.4" y="635.9" width="12.2" height="24.65" shape-rendering="crispEdges"/><rect fill="#313244" x="0" y="660.3" width="12.2" height="24.65" shape-rendering="crispEdges"/><rect fill="#383a4c" x="12.2" y="660.3" width="1903.2" height="24.65" shape-rendering="crispEdges"/><rect fill="#313244" x="1915.4" y="660.3" width="12.2" height="24.65" shape-rendering="crispEdges"/><rect fill="#313244" x="0" y="684.7" width="12.2" height="24.65" shape-rendering="crispEdges"/><rect fill="#383a4c" x="12.2" y="684.7" width="1903.2" height="24.65" shape-rendering="crispEdges"/><rect fill="#313244" x="1915.4" y="684.7" width="12.2" height="24.65" shape-rendering="crispEdges"/><rect fill="#313244" x="0" y="709.1" width="12.2" height="24.65" shape-rendering="crispEdges"/><rect fill="#383a4c" x="12.2" y="709.1" width="1903.2" height="24.65" shape-rendering="crispEdges"/><rect fill="#313244" x="1915.4" y="709.1" width="12.2" height="24.65" shape-rendering="crispEdges"/><rect fill="#313244" x="0" y="733.5" width="12.2" height="24.65" shape-rendering="crispEdges"/><rect fill="#313244" x="12.2" y="733.5" width="1903.2" height="24.65" shape-rendering="crispEdges"/><rect fill="#313244" x="1915.4" y="733.5" width="12.2" height="24.65" shape-rendering="crispEdges"/><rect fill="#313244" x="0" y="757.9" width="12.2" height="24.65" shape-rendering="crispEdges"/><rect fill="#313244" x="12.2" y="757.9" width="524.6" height="24.65" shape-rendering="crispEdges"/><rect fill="#f5c2e7" x="536.8" y="757.9" width="195.2" height="24.65" shape-rendering="crispEdges"/><rect fill="#313244" x="732" y="757.9" width="12.2" height="24.65" shape-rendering="crispEdges"/><rect fill="#313244" x="744.2" y="757.9" width="195.2" height="24.65" shape-rendering="crispEdges"/><rect fill="#313244" x="939.4" y="757.9" width="12.2" height="24.65" shape-rendering="crispEdges"/><rect fill="#313244" x="951.6" y="757.9" width="195.2" height="24.65" shape-rendering="crispEdges"/><rect fill="#313244" x="1146.8" y="757.9" width="12.2" height="24.65" shape-rendering="crispEdges"/><rect fill="#f28fad" x="1159" y="757.9" width="231.8" height="24.65" shape-rendering="crispEdges"/><rect fill="#313244" x="1390.8" y="757.9" width="524.6" height="24.65" shape-rendering="crispEdges"/><rect fill="#313244" x="1915.4" y="757.9" width="12.2" height="24.65" shape-rendering="crispEdges"/><rect fill="#313244" x="0" y="782.3" width="12.2" height="24.65" shape-rendering="crispEdges"/><rect fill="#313244" x="12.2" y="782.3" width="524.6" height="24.65" shape-rendering="crispEdges"/><rect fill="#f5c2e7" x="536.8" y="782.3" width="12.2" height="24.65" shape-rendering="crispEdges"/><rect fill="#f5c2e7" x="549" y="782.3" width="170.8" height="24.65" shape-rendering="crispEdges"/><rect fill="#f5c2e7" x="719.8" y="782.3" width="12.2" height="24.65" shape-rendering="crispEdges"/><rect fill="#313244" x="732" y="782.3" width="12.2" height="24.65" shape-rendering="crispEdges"/><rect fill="#313244" x="744.2" y="782.3" width="12.2" height="24.65" shape-rendering="crispEdges"/><rect fill="#313244" x="756.4" y="782.3" width="170.8" height="24.65" shape-rendering="crispEdges"/><rect fill="#313244" x="927.2" y="782.3" width="12.2" height="24.65" shape-rendering="crispEdges"/><rect fill="#313244" x="939.4" y="782.3" width="12.2" height="24.65" shape-rendering="crispEdges"/><rect fill="#313244" x="951.6" y="782.3" width="12.2" height="24.65" shape-rendering="crispEdges"/><rect fill="#313244" x="963.8" y="782.3" width="158.6" height="24.65" shape-rendering="crispEdges"/><rect fill="#313244" x="1122.4" y="782.3" width="24.4" height="24.65" shape-rendering="crispEdges"/><rect fill="#313244" x="1146.8" y="782.3" width="12.2" height="24.65" shape-rendering="crispEdges"/><rect fill="#f28fad" x="1159" y="782.3" width="231.8" height="24.65" shape-rendering="crispEdges"/><rect fill="#313244" x="1390.8" y="782.3" width="524.6" height="24.65" shape-rendering="crispEdges"/><rect fill="#313244" x="1915.4" y="782.3" width="12.2" height="24.65" shape-rendering="crispEdges"/><rect fill="#313244" x="0" y="806.7" width="12.2" height="24.65" shape-rendering="crispEdges"/><rect fill="#313244" x="12.2" y="806.7" width="524.6" height="24.65" shape-rendering="crispEdges"/><rect fill="#f5c2e7" x="536.8" y="806.7" width="195.2" height="24.65" shape-rendering="crispEdges"/><rect fill="#313244" x="732" y="806.7" width="12.2" height="24.65" shape-rendering="crispEdges"/><rect fill="#313244" x="744.2" y="806.7" width="195.2" height="24.65" shape-rendering="crispEdges"/><rect fill="#313244" x="939.4" y="806.7" width="12.2" height="24.65" shape-rendering="crispEdges"/><rect fill="#313244" x="951.6" y="806.7" width="195.2" height="24.65" shape-rendering="crispEdges"/><rect fill="#313244" x="1146.8" y="806.7" width="12.2" height="24.65" shape-rendering="crispEdges"/><rect fill="#f28fad" x="1159" y="806.7" width="231.8" height="24.65" shape-rendering="crispEdges"/><rect fill="#313244" x="1390.8" y="806.7" width="524.6" height="24.65" shape-rendering="crispEdges"/><rect fill="#313244" x="1915.4" y="806.7" width="12.2" height="24.65" shape-rendering="crispEdges"/><rect fill="#313244" x="0" y="831.1" width="1927.6" height="24.65" shape-rendering="crispEdges"/><rect fill="#45475a" x="0" y="855.5" width="48.8" height="24.65" shape-rendering="crispEdges"/><rect fill="#45475a" x="48.8" y="855.5" width="61" height="24.65" shape-rendering="crispEdges"/><rect fill="#45475a" x="109.8" y="855.5" width="36.6" height="24.65" shape-rendering="crispEdges"/><rect fill="#45475a" x="146.4" y="855.5" width="109.8" height="24.65" shape-rendering="crispEdges"/><rect fill="#45475a" x="256.2" y="855.5" width="36.6" height="24.65" shape-rendering="crispEdges"/><rect fill="#45475a" x="292.8" y="855.5" width="97.6" height="24.65" shape-rendering="crispEdges"/><rect fill="#45475a" x="390.4" y="855.5" width="1390.8" height="24.65" shape-rendering="crispEdges"/><rect fill="#45475a" x="1781.2" y="855.5" width="12.2" height="24.65" shape-rendering="crispEdges"/><rect fill="#45475a" x="1793.4" y="855.5" width="24.4" height="24.65" shape-rendering="crispEdges"/><rect fill="#45475a" x="1817.8" y="855.5" width="97.6" height="24.65" shape-rendering="crispEdges"/><rect fill="#45475a" x="1915.4" y="855.5" width="12.2" height="24.65" shape-rendering="crispEdges"/>
    <g class="terminal-1607078652-matrix">
    <text class="terminal-1607078652-r2" x="12.2" y="20" textLength="12.2" clip-path="url(#terminal-1607078652-line-0)">⭘</text><text class="terminal-1607078652-r2" x="890.6" y="20" textLength="109.8" clip-path="url(#terminal-1607078652-line-0)">DoListTUI</text><text class="terminal-1607078652-r1" x="1927.6" y="20" textLength="12.2" clip-path="url(#terminal-1607078652-line-0)">
</text><text class="terminal-1607078652-r1" x="1927.6" y="44.4" textLength="12.2" clip-path="url(#terminal-1607078652-line-1)">
</text><text class="terminal-1607078652-r2" x="12.2" y="68.8" textLength="97.6" clip-path="url(#terminal-1607078652-line-2)">Filters:</text><text class="terminal-1607078652-r1" x="1927.6" y="68.8" textLength="12.2" clip-path="url(#terminal-1607078652-line-2)">
</text><text class="terminal-1607078652-r3" x="12.2" y="93.2" textLength="12.2" clip-path="url(#terminal-1607078652-line-3)">▊</text><text class="terminal-1607078652-r4" x="24.4" y="93.2" textLength="1354.2" clip-path="url(#terminal-1607078652-line-3)">▔▔▔▔▔▔▔▔▔▔▔▔▔▔▔▔▔▔▔▔▔▔▔▔▔▔▔▔▔▔▔▔▔▔▔▔▔▔▔▔▔▔▔▔▔▔▔▔▔▔▔▔▔▔▔▔▔▔▔▔▔▔▔▔▔▔▔▔▔▔▔▔▔▔▔▔▔▔▔▔▔▔▔▔▔▔▔▔▔▔▔▔▔▔▔▔▔▔▔▔▔▔▔▔▔▔▔▔▔▔▔</text><text class="terminal-1607078652-r4" x="1378.6" y="93.2" textLength="12.2" clip-path="url(#terminal-1607078652-line-3)">▎</text><text class="terminal-1607078652-r3" x="1403" y="93.2" textLength="12.2" clip-path="url(#terminal-1607078652-line-3)">▊</text><text class="terminal-1607078652-r4" x="1415.2" y="93.2" textLength="219.6" clip-path="url(#terminal-1607078652-line-3)">▔▔▔▔▔▔▔▔▔▔▔▔▔▔▔▔▔▔</text><text class="terminal-1607078652-r4" x="1634.8" y="93.2" textLength="12.2" clip-path="url(#terminal-1607078652-line-3)">▎</text><text class="terminal-1607078652-r3" x="1659.2" y="93.2" textLength="12.2" clip-path="url(#terminal-1607078652-line-3)">▊</text><text class="terminal-1607078652-r4" x="1671.4" y="93.2" textLength="219.6" clip-path="url(#terminal-1607078652-line-3)">▔▔▔▔▔▔▔▔▔▔▔▔▔▔▔▔▔▔</text><text class="terminal-1607078652-r4" x="1891" y="93.2" textLength="12.2" clip-path="url(#terminal-1607078652-line-3)">▎</text><text class="terminal-1607078652-r1" x="1927.6" y="93.2" textLength="12.2" clip-path="url(#terminal-1607078652-line-3)">
</text><text class="terminal-1607078652-r3" x="12.2" y="117.6" textLength="12.2" clip-path="url(#terminal-1607078652-line-4)">▊</text><text class="terminal-1607078652-r5" x="48.8" y="117.6" textLength="109.8" clip-path="url(#terminal-1607078652-line-4)">Search...</text><text class="terminal-1607078652-r4" x="1378.6" y="117.6" textLength="12.2" clip-path="url(#terminal-1607078652-line-4)">▎</text><text class="terminal-1607078652-r3" x="1403" y="117.6" textLength="12.2" clip-path="url(#terminal-1607078652-line-4)">▊</text><text class="terminal-1607078652-r2" x="1439.6" y="117.6" textLength="97.6" clip-path="url(#terminal-1607078652-line-4)">All&#160;Tags</text><text class="terminal-1607078652-r6" x="1598.2" y="117.6" textLength="12.2" clip-path="url(#terminal-1607078652-line-4)">▼</text><text class="terminal-1607078652-r4" x="1634.8" y="117.6" textLength="12.2" clip-path="url(#terminal-1607078652-line-4)">▎</text><text class="terminal-1607078652-r3" x="1659.2" y="117.6" textLength="12.2" clip-path="url(#terminal-1607078652-line-4)">▊</text><text class="terminal-1607078652-r2" x="1695.8" y="117.6" textLength="134.2" clip-path="url(#terminal-1607078652-line-4)">Active&#160;Only</text><text class="terminal-1607078652-r6" x="1854.4" y="117.6" textLength="12.2" clip-path="url(#terminal-1607078652-line-4)">▼</text><text class="terminal-1607078652-r4" x="1891" y="117.6" textLength="12.2" clip-path="url(#terminal-1607078652-line-4)">▎</text><text class="terminal-1607078652-r1" x="1927.6" y="117.6" textLength="12.2" clip-path="url(#terminal-1607078652-line-4)">
</text><text class="terminal-1607078652-r3" x="12.2" y="142" textLength="12.2" clip-path="url(#terminal-1607078652-line-5)">▊</text><text class="terminal-1607078652-r4" x="24.4" y="142" textLength="1354.2" clip-path="url(#terminal-1607078652-line-5)">▁▁▁▁▁▁▁▁▁▁▁▁▁▁▁▁▁▁▁▁▁▁▁▁▁▁▁▁▁▁▁▁▁▁▁▁▁▁▁▁▁▁▁▁▁▁▁▁▁▁▁▁▁▁▁▁▁▁▁▁▁▁▁▁▁▁▁▁▁▁▁▁▁▁▁▁▁▁▁▁▁▁▁▁▁▁▁▁▁▁▁▁▁▁▁▁▁▁▁▁▁▁▁▁▁▁▁▁▁▁▁</text><text class="terminal-1607078652-r4" x="1378.6" y="142" textLength="12.2" clip-path="url(#terminal-1607078652-line-5)">▎</text><text class="terminal-1607078652-r3" x="1403" y="142" textLength="12.2" clip-path="url(#terminal-1607078652-line-5)">▊</text><text class="terminal-1607078652-r4" x="1415.2" y="142" textLength="219.6" clip-path="url(#terminal-1607078652-line-5)">▁▁▁▁▁▁▁▁▁▁▁▁▁▁▁▁▁▁</text><text class="terminal-1607078652-r4" x="1634.8" y="142" textLength="12.2" clip-path="url(#terminal-1607078652-line-5)">▎</text><text class="terminal-1607078652-r3" x="1659.2" y="142" textLength="12.2" clip-path="url(#terminal-1607078652-line-5)">▊</text><text class="terminal-1607078652-r4" x="1671.4" y="142" textLength="219.6" clip-path="url(#terminal-1607078652-line-5)">▁▁▁▁▁▁▁▁▁▁▁▁▁▁▁▁▁▁</text><text class="terminal-1607078652-r4" x="1891" y="142" textLength="12.2" clip-path="url(#terminal-1607078652-line-5)">▎</text><text class="terminal-1607078652-r1" x="1927.6" y="142" textLength="12.2" clip-path="url(#terminal-1607078652-line-5)">
</text><text class="terminal-1607078652-r1" x="1927.6" y="166.4" textLength="12.2" clip-path="url(#terminal-1607078652-line-6)">
</text><text class="terminal-1607078652-r7" x="12.2" y="190.8" textLength="48.8" clip-path="url(#terminal-1607078652-line-7)">&#160;ID&#160;</text><text class="terminal-1607078652-r7" x="61" y="190.8" textLength="268.4" clip-path="url(#terminal-1607078652-line-7)">&#160;Name&#160;&#160;&#160;&#160;&#160;&#160;&#160;&#160;&#160;&#160;&#160;&#160;&#160;&#160;&#160;&#160;&#160;</text><text class="terminal-1607078652-r7" x="329.4" y="190.8" textLength="73.2" clip-path="url(#terminal-1607078652-line-7)">&#160;Tag&#160;&#160;</text><text class="terminal-1607078652-r7" x="402.6" y="190.8" textLength="109.8" clip-path="url(#terminal-1607078652-line-7)">&#160;Status&#160;&#160;</text><text class="terminal-1607078652-r7" x="512.4" y="190.8" textLength="170.8" clip-path="url(#terminal-1607078652-line-7)">&#160;Reminder&#160;&#160;&#160;&#160;&#160;</text><text class="terminal-1607078652-r7" x="683.2" y="190.8" textLength="85.4" clip-path="url(#terminal-1607078652-line-7)">&#160;Notes&#160;</text><text class="terminal-1607078652-r7" x="768.6" y="190.8" textLength="158.6" clip-path="url(#terminal-1607078652-line-7)">&#160;Created&#160;&#160;&#160;&#160;&#160;</text><text class="terminal-1607078652-r1" x="1927.6" y="190.8" textLength="12.2" clip-path="url(#terminal-1607078652-line-7)">
</text><text class="terminal-1607078652-r8" x="12.2" y="215.2" textLength="48.8" clip-path="url(#terminal-1607078652-line-8)">&#160;3&#160;&#160;</text><text class="terminal-1607078652-r8" x="61" y="215.2" textLength="268.4" clip-path="url(#terminal-1607078652-line-8)">&#160;Comprar&#160;muita&#160;batata&#160;</text><text class="terminal-1607078652-r8" x="329.4" y="215.2" textLength="73.2" clip-path="url(#terminal-1607078652-line-8)">&#160;food&#160;</text><text class="terminal-1607078652-r8" x="402.6" y="215.2" textLength="109.8" clip-path="url(#terminal-1607078652-line-8)">&#160;working&#160;</text><text class="terminal-1607078652-r8" x="512.4" y="215.2" textLength="170.8" clip-path="url(#terminal-1607078652-line-8)">&#160;batata&#160;é&#160;bom&#160;</text><text class="terminal-1607078652-r8" x="683.2" y="215.2" textLength="85.4" clip-path="url(#terminal-1607078652-line-8)">&#160;0&#160;&#160;&#160;&#160;&#160;</text><text class="terminal-1607078652-r8" x="768.6" y="215.2" textLength="158.6" clip-path="url(#terminal-1607078652-line-8)">&#160;26/10-00:54&#160;</text><text class="terminal-1607078652-r1" x="1927.6" y="215.2" textLength="12.2" clip-path="url(#terminal-1607078652-line-8)">
</text><text class="terminal-1607078652-r2" x="12.2" y="239.6" textLength="48.8" clip-path="url(#terminal-1607078652-line-9)">&#160;4&#160;&#160;</text><text class="terminal-1607078652-r2" x="61" y="239.6" textLength="268.4" clip-path="url(#terminal-1607078652-line-9)">&#160;Cozinhar&#160;a&#160;batata&#160;&#160;&#160;&#160;</text><text class="terminal-1607078652-r2" x="329.4" y="239.6" textLength="73.2" clip-path="url(#terminal-1607078652-line-9)">&#160;food&#160;</text><text class="terminal-1607078652-r9" x="414.8" y="239.6" textLength="36.6" clip-path="url(#terminal-1607078652-line-9)">new</text><text class="terminal-1607078652-r2" x="512.4" y="239.6" textLength="170.8" clip-path="url(#terminal-1607078652-line-9)">&#160;bom&#160;&#160;&#160;&#160;&#160;&#160;&#160;&#160;&#160;&#160;</text><text class="terminal-1607078652-r2" x="683.2" y="239.6" textLength="85.4" clip-path="url(#terminal-1607078652-line-9)">&#160;0&#160;&#160;&#160;&#160;&#160;</text><text class="terminal-1607078652-r2" x="768.6" y="239.6" textLength="158.6" clip-path="url(#terminal-1607078652-line-9)">&#160;26/10-00:54&#160;</text><text class="terminal-1607078652-r1" x="1927.6" y="239.6" textLength="12.2" clip-path="url(#terminal-1607078652-line-9)">
</text><text class="terminal-1607078652-r2" x="12.2" y="264" textLength="48.8" clip-path="url(#terminal-1607078652-line-10)">&#160;5&#160;&#160;</text><text class="terminal-1607078652-r2" x="61" y="264" textLength="268.4" clip-path="url(#terminal-1607078652-line-10)">&#160;Comer&#160;a&#160;batata&#160;&#160;&#160;&#160;&#160;&#160;&#160;</text><text class="terminal-1607078652-r2" x="329.4" y="264" textLength="73.2" clip-path="url(#terminal-1607078652-line-10)">&#160;food&#160;</text><text class="terminal-1607078652-r9" x="414.8" y="264" textLength="36.6" clip-path="url(#terminal-1607078652-line-10)">new</text><text class="terminal-1607078652-r2" x="512.4" y="264" textLength="170.8" clip-path="url(#terminal-1607078652-line-10)">&#160;yummi&#160;&#160;&#160;&#160;&#160;&#160;&#160;&#160;</text><text class="terminal-1607078652-r2" x="683.2" y="264" textLength="85.4" clip-path="url(#terminal-1607078652-line-10)">&#160;0&#160;&#160;&#160;&#160;&#160;</text><text class="terminal-1607078652-r2" x="768.6" y="264" textLength="158.6" clip-path="url(#terminal-1607078652-line-10)">&#160;26/10-00:55&#160;</text><text class="terminal-1607078652-r1" x="1927.6" y="264" textLength="12.2" clip-path="url(#terminal-1607078652-line-10)">
</text><text class="terminal-1607078652-r2" x="12.2" y="288.4" textLength="48.8" clip-path="url(#terminal-1607078652-line-11)">&#160;6&#160;&#160;</text><text class="terminal-1607078652-r2" x="61" y="288.4" textLength="268.4" clip-path="url(#terminal-1607078652-line-11)">&#160;repetir&#160;&#160;&#160;&#160;&#160;&#160;&#160;&#160;&#160;&#160;&#160;&#160;&#160;&#160;</text><text class="terminal-1607078652-r2" x="329.4" y="288.4" textLength="73.2" clip-path="url(#terminal-1607078652-line-11)">&#160;food&#160;</text><text class="terminal-1607078652-r9" x="414.8" y="288.4" textLength="36.6" clip-path="url(#terminal-1607078652-line-11)">new</text><text class="terminal-1607078652-r2" x="683.2" y="288.4" textLength="85.4" clip-path="url(#terminal-1607078652-line-11)">&#160;0&#160;&#160;&#160;&#160;&#160;</text><text class="terminal-1607078652-r2" x="768.6" y="288.4" textLength="158.6" clip-path="url(#terminal-1607078652-line-11)">&#160;26/10-00:55&#160;</text><text class="terminal-1607078652-r1" x="1927.6" y="288.4" textLength="12.2" clip-path="url(#terminal-1607078652-line-11)">
</text><text class="terminal-1607078652-r1" x="1927.6" y="312.8" textLength="12.2" clip-path="url(#terminal-1607078652-line-12)">
</text><text class="terminal-1607078652-r1" x="1927.6" y="337.2" textLength="12.2" clip-path="url(#terminal-1607078652-line-13)">
</text><text class="terminal-1607078652-r1" x="1927.6" y="361.6" textLength="12.2" clip-path="url(#terminal-1607078652-line-14)">
</text><text class="terminal-1607078652-r1" x="1927.6" y="386" textLength="12.2" clip-path="url(#terminal-1607078652-line-15)">
</text><text class="terminal-1607078652-r1" x="1927.6" y="410.4" textLength="12.2" clip-path="url(#terminal-1607078652-line-16)">
</text><text class="terminal-1607078652-r1" x="1927.6" y="434.8" textLength="12.2" clip-path="url(#terminal-1607078652-line-17)">
</text><text class="terminal-1607078652-r1" x="1927.6" y="459.2" textLength="12.2" clip-path="url(#terminal-1607078652-line-18)">
</text><text class="terminal-1607078652-r1" x="1927.6" y="483.6" textLength="12.2" clip-path="url(#terminal-1607078652-line-19)">
</text><text class="terminal-1607078652-r1" x="1927.6" y="508" textLength="12.2" clip-path="url(#terminal-1607078652-line-20)">
</text><text class="terminal-1607078652-r1" x="1927.6" y="532.4" textLength="12.2" clip-path="url(#terminal-1607078652-line-21)">
</text><text class="terminal-1607078652-r1" x="1927.6" y="556.8" textLength="12.2" clip-path="url(#terminal-1607078652-line-22)">
</text><text class="terminal-1607078652-r1" x="1927.6" y="581.2" textLength="12.2" clip-path="url(#terminal-1607078652-line-23)">
</text><text class="terminal-1607078652-r1" x="1927.6" y="605.6" textLength="12.2" clip-path="url(#terminal-1607078652-line-24)">
</text><text class="terminal-1607078652-r1" x="1927.6" y="630" textLength="12.2" clip-path="url(#terminal-1607078652-line-25)">
</text><text class="terminal-1607078652-r1" x="1927.6" y="654.4" textLength="12.2" clip-path="url(#terminal-1607078652-line-26)">
</text><text class="terminal-1607078652-r1" x="1927.6" y="678.8" textLength="12.2" clip-path="url(#terminal-1607078652-line-27)">
</text><text class="terminal-1607078652-r1" x="1927.6" y="703.2" textLength="12.2" clip-path="url(#terminal-1607078652-line-28)">
</text><text class="terminal-1607078652-r1" x="1927.6" y="727.6" textLength="12.2" clip-path="url(#terminal-1607078652-line-29)">
</text><text class="terminal-1607078652-r1" x="1927.6" y="752" textLength="12.2" clip-path="url(#terminal-1607078652-line-30)">
</text><text class="terminal-1607078652-r10" x="536.8" y="776.4" textLength="195.2" clip-path="url(#terminal-1607078652-line-31)">▔▔▔▔▔▔▔▔▔▔▔▔▔▔▔▔</text><text class="terminal-1607078652-r11" x="744.2" y="776.4" textLength="195.2" clip-path="url(#terminal-1607078652-line-31)">▔▔▔▔▔▔▔▔▔▔▔▔▔▔▔▔</text><text class="terminal-1607078652-r11" x="951.6" y="776.4" textLength="195.2" clip-path="url(#terminal-1607078652-line-31)">▔▔▔▔▔▔▔▔▔▔▔▔▔▔▔▔</text><text class="terminal-1607078652-r12" x="1159" y="776.4" textLength="231.8" clip-path="url(#terminal-1607078652-line-31)">▔▔▔▔▔▔▔▔▔▔▔▔▔▔▔▔▔▔▔</text><text class="terminal-1607078652-r1" x="1927.6" y="776.4" textLength="12.2" clip-path="url(#terminal-1607078652-line-31)">
</text><text class="terminal-1607078652-r13" x="549" y="800.8" textLength="170.8" clip-path="url(#terminal-1607078652-line-32)">&#160;Add&#160;Task&#160;(a)&#160;</text><text class="terminal-1607078652-r7" x="756.4" y="800.8" textLength="170.8" clip-path="url(#terminal-1607078652-line-32)">&#160;Edit&#160;(Enter)&#160;</text><text class="terminal-1607078652-r7" x="963.8" y="800.8" textLength="158.6" clip-path="url(#terminal-1607078652-line-32)">&#160;Refresh&#160;(r)&#160;</text><text class="terminal-1607078652-r13" x="1159" y="800.8" textLength="231.8" clip-path="url(#terminal-1607078652-line-32)">&#160;Quit&#160;(Esc/Ctrl+Q)&#160;</text><text class="terminal-1607078652-r1" x="1927.6" y="800.8" textLength="12.2" clip-path="url(#terminal-1607078652-line-32)">
</text><text class="terminal-1607078652-r14" x="536.8" y="825.2" textLength="195.2" clip-path="url(#terminal-1607078652-line-33)">▁▁▁▁▁▁▁▁▁▁▁▁▁▁▁▁</text><text class="terminal-1607078652-r15" x="744.2" y="825.2" textLength="195.2" clip-path="url(#terminal-1607078652-line-33)">▁▁▁▁▁▁▁▁▁▁▁▁▁▁▁▁</text><text class="terminal-1607078652-r15" x="951.6" y="825.2" textLength="195.2" clip-path="url(#terminal-1607078652-line-33)">▁▁▁▁▁▁▁▁▁▁▁▁▁▁▁▁</text><text class="terminal-1607078652-r16" x="1159" y="825.2" textLength="231.8" clip-path="url(#terminal-1607078652-line-33)">▁▁▁▁▁▁▁▁▁▁▁▁▁▁▁▁▁▁▁</text><text class="terminal-1607078652-r1" x="1927.6" y="825.2" textLength="12.2" clip-path="url(#terminal-1607078652-line-33)">
</text><text class="terminal-1607078652-r1" x="1927.6" y="849.6" textLength="12.2" clip-path="url(#terminal-1607078652-line-34)">
</text><text class="terminal-1607078652-r17" x="0" y="874" textLength="48.8" clip-path="url(#terminal-1607078652-line-35)">&#160;^q&#160;</text><text class="terminal-1607078652-r2" x="48.8" y="874" textLength="61" clip-path="url(#terminal-1607078652-line-35)">Quit&#160;</text><text class="terminal-1607078652-r17" x="109.8" y="874" textLength="36.6" clip-path="url(#terminal-1607078652-line-35)">&#160;a&#160;</text><text class="terminal-1607078652-r2" x="146.4" y="874" textLength="109.8" clip-path="url(#terminal-1607078652-line-35)">Add&#160;Task&#160;</text><text class="terminal-1607078652-r17" x="256.2" y="874" textLength="36.6" clip-path="url(#terminal-1607078652-line-35)">&#160;r&#160;</text><text class="terminal-1607078652-r2" x="292.8" y="874" textLength="97.6" clip-path="url(#terminal-1607078652-line-35)">Refresh&#160;</text><text class="terminal-1607078652-r18" x="1781.2" y="874" textLength="12.2" clip-path="url(#terminal-1607078652-line-35)">▏</text><text class="terminal-1607078652-r17" x="1793.4" y="874" textLength="24.4" clip-path="url(#terminal-1607078652-line-35)">^p</text><text class="terminal-1607078652-r2" x="1817.8" y="874" textLength="97.6" clip-path="url(#terminal-1607078652-line-35)">&#160;palette</text>
    </g>
    </g>
</svg>
